<svg xmlns="http://www.w3.org/2000/svg" viewBox="0 0 400 300" data-imageid="recycling-outline-0b300" imageName="Recycling" class="illustrations_image" style="width: 151px;"><g id="_244_recycling_outline" data-name="#244_recycling_outline"><polygon points="143.88 196.62 143.88 206.61 123.49 196.62 123.49 206.61 103.11 196.62 103.11 206.61 103.11 208.36 103.11 233.96 167.19 233.96 167.19 206.61 143.88 196.62" fill="#68e1fd" class="target-color"/><path d="M167.19,235H103.11a1,1,0,0,1-1-1V196.62a1,1,0,0,1,.47-.85,1,1,0,0,1,1-.05L122.49,205v-8.39a1,1,0,0,1,.47-.85,1,1,0,0,1,1-.05L142.88,205v-8.39a1,1,0,0,1,1.39-.92l23.31,10a1,1,0,0,1,.61.92V234A1,1,0,0,1,167.19,235Zm-63.08-2h62.08V207.27l-21.31-9.13v8.47a1,1,0,0,1-.47.85,1,1,0,0,1-1,0l-19-9.29v8.39a1,1,0,0,1-.47.85,1,1,0,0,1-1,0l-18.94-9.29Z" fill="#093f68"/><rect x="126.41" y="218.69" width="18.06" height="15.27" fill="#093f68"/><path d="M144.47,235H126.41a1,1,0,0,1-1-1V218.69a1,1,0,0,1,1-1h18.06a1,1,0,0,1,1,1V234A1,1,0,0,1,144.47,235Zm-17.06-2h16.06V219.69H127.41Z" fill="#093f68"/><rect x="85.65" y="182.44" width="17.46" height="51.52" fill="#68e1fd" class="target-color"/><path d="M103.11,235H85.65a1,1,0,0,1-1-1V182.44a1,1,0,0,1,1-1h17.46a1,1,0,0,1,1,1V234A1,1,0,0,1,103.11,235Zm-16.46-2h15.46V183.44H86.65Z" fill="#093f68"/><rect x="83" y="177.02" width="21.89" height="5.42" rx="2.71" fill="#fff"/><path d="M102.18,183.44H85.71a3.71,3.71,0,1,1,0-7.42h16.47a3.71,3.71,0,1,1,0,7.42ZM85.71,178a1.71,1.71,0,1,0,0,3.42h16.47a1.71,1.71,0,1,0,0-3.42Z" fill="#093f68"/><rect x="277.9" y="169.11" width="49.1" height="6.43" rx="1.61" fill="#fff"/><path d="M325.39,176.54H279.51a2.61,2.61,0,0,1-2.61-2.6v-3.22a2.61,2.61,0,0,1,2.61-2.61h45.88a2.61,2.61,0,0,1,2.61,2.61v3.22A2.61,2.61,0,0,1,325.39,176.54Zm-45.88-6.43a.61.61,0,0,0-.61.61v3.22a.6.6,0,0,0,.61.6h45.88a.6.6,0,0,0,.61-.6v-3.22a.61.61,0,0,0-.61-.61Z" fill="#093f68"/><polygon points="318.82 229.03 286.08 229.03 280.24 175.54 324.66 175.54 318.82 229.03" fill="#68e1fd" class="target-color"/><path d="M318.82,230H286.08a1,1,0,0,1-1-.89l-5.83-53.49a.92.92,0,0,1,.25-.77,1,1,0,0,1,.74-.34h44.42a1,1,0,0,1,.74.34,1,1,0,0,1,.25.77l-5.84,53.49A1,1,0,0,1,318.82,230ZM287,228h30.95l5.62-51.49H281.35Z" fill="#093f68"/><rect x="280.24" y="215.59" width="5.74" height="19.48" rx="2.87" fill="#093f68"/><path d="M283.11,236.07a3.88,3.88,0,0,1-3.87-3.87V218.46a3.87,3.87,0,0,1,7.74,0V232.2A3.88,3.88,0,0,1,283.11,236.07Zm0-19.48a1.87,1.87,0,0,0-1.87,1.87V232.2a1.87,1.87,0,0,0,3.74,0V218.46A1.87,1.87,0,0,0,283.11,216.59Z" fill="#093f68"/><rect x="318.92" y="215.59" width="5.74" height="19.48" rx="2.87" fill="#093f68"/><path d="M321.79,236.07a3.87,3.87,0,0,1-3.87-3.87V218.46a3.87,3.87,0,1,1,7.74,0V232.2A3.88,3.88,0,0,1,321.79,236.07Zm0-19.48a1.87,1.87,0,0,0-1.87,1.87V232.2a1.87,1.87,0,0,0,3.74,0V218.46A1.87,1.87,0,0,0,321.79,216.59Z" fill="#093f68"/><ellipse cx="253.14" cy="66.3" rx="5.24" ry="19.9" transform="translate(90.03 270.93) rotate(-66.12)" fill="#fff"/><path d="M267.63,76.66c-4.31,0-10.87-1.92-17-4.65a58.62,58.62,0,0,1-12.46-7.23c-3.52-2.82-4.91-5.15-4.12-6.94s3.45-2.32,7.91-1.61a58.68,58.68,0,0,1,13.73,4.37c9.49,4.2,18.24,10.42,16.58,14.16h0C271.66,76.09,270,76.66,267.63,76.66Zm-29-18.73c-1.83,0-2.58.41-2.72.72s.29,2,3.54,4.57a56.68,56.68,0,0,0,12,7c11.18,5,18.42,5.09,19,3.77S266,67.37,254.86,62.42a57,57,0,0,0-13.24-4.21A19.35,19.35,0,0,0,238.58,57.93Zm32.75,16.43h0Z" fill="#093f68"/><rect x="233.2" y="75.68" width="38.79" height="55.81" fill="#68e1fd" class="target-color"/><path d="M272,132.49H233.2a1,1,0,0,1-1-1V75.68a1,1,0,0,1,1-1H272a1,1,0,0,1,1,1v55.81A1,1,0,0,1,272,132.49Zm-37.79-2H271V76.68H234.2Z" fill="#093f68"/><path d="M274.24,76.68h-43.8a1,1,0,0,1,0-2h43.8a1,1,0,0,1,0,2Z" fill="#093f68"/><rect x="239.58" y="94.45" width="26.24" height="18.52" fill="#70cc40"/><path d="M265.82,114H239.58a1,1,0,0,1-1-1V94.45a1,1,0,0,1,1-1h26.24a1,1,0,0,1,1,1V113A1,1,0,0,1,265.82,114Zm-25.24-2h24.24V95.45H240.58Z" fill="#093f68"/><polygon points="176.5 76.14 147.17 76.14 150.06 70.9 173.61 70.9 176.5 76.14" fill="#fff"/><path d="M176.5,77.14H147.17a1,1,0,0,1-.88-1.49l2.89-5.23a1,1,0,0,1,.88-.52h23.55a1,1,0,0,1,.87.52l2.89,5.23a1,1,0,0,1,0,1A1,1,0,0,1,176.5,77.14Zm-27.64-2H174.8L173,71.9H150.65Z" fill="#093f68"/><polygon points="176.5 126.09 147.17 126.09 150.06 131.32 173.61 131.32 176.5 126.09" fill="#fff"/><path d="M173.61,132.32H150.06a1,1,0,0,1-.88-.52l-2.89-5.23a1,1,0,0,1,.88-1.48H176.5a1,1,0,0,1,.86.49,1,1,0,0,1,0,1l-2.89,5.23A1,1,0,0,1,173.61,132.32Zm-23-2H173l1.78-3.23H148.86Z" fill="#093f68"/><rect x="144.82" y="76.14" width="34.02" height="49.95" fill="#68e1fd" class="target-color"/><path d="M178.84,127.09h-34a1,1,0,0,1-1-1V76.14a1,1,0,0,1,1-1h34a1,1,0,0,1,1,1v50A1,1,0,0,1,178.84,127.09Zm-33-2h32V77.14h-32Z" fill="#093f68"/><circle cx="161.83" cy="101.11" r="12.25" fill="#f56132"/><path d="M161.83,114.36a13.25,13.25,0,1,1,13.25-13.25A13.27,13.27,0,0,1,161.83,114.36Zm0-24.5a11.25,11.25,0,1,0,11.25,11.25A11.27,11.27,0,0,0,161.83,89.86Z" fill="#093f68"/><path d="M224.91,112.58H181.29a1,1,0,0,1,0-2h43.62a1,1,0,0,1,0,2Z" fill="#093f68"/><path d="M224.91,132.32H181.29a1,1,0,0,1,0-2h43.62a1,1,0,1,1,0,2Z" fill="#093f68"/><rect x="183.76" y="111.58" width="38.53" height="19.74" fill="#68e1fd" class="target-color"/><path d="M222.29,132.32H183.76a1,1,0,0,1-1-1V111.58a1,1,0,0,1,1-1h38.53a1,1,0,0,1,1,1v19.74A1,1,0,0,1,222.29,132.32Zm-37.53-2h36.53V112.58H184.76Z" fill="#093f68"/><circle cx="213.93" cy="96.95" r="14.63" fill="#fff"/><path d="M213.93,112.58A15.63,15.63,0,1,1,229.55,97,15.65,15.65,0,0,1,213.93,112.58Zm0-29.26A13.63,13.63,0,1,0,227.55,97,13.64,13.64,0,0,0,213.93,83.32Z" fill="#093f68"/><circle cx="213.93" cy="96.95" r="9.26" fill="#fff"/><path d="M213.93,107.21A10.26,10.26,0,1,1,224.19,97,10.27,10.27,0,0,1,213.93,107.21Zm0-18.52A8.26,8.26,0,1,0,222.19,97,8.26,8.26,0,0,0,213.93,88.69Z" fill="#093f68"/><rect x="191.51" y="116.64" width="22.96" height="8.92" fill="#ffbc0e"/><path d="M214.47,126.56h-23a1,1,0,0,1-1-1v-8.92a1,1,0,0,1,1-1h23a1,1,0,0,1,1,1v8.92A1,1,0,0,1,214.47,126.56Zm-22-2h21v-6.92h-21Z" fill="#093f68"/><path d="M250.62,211.08h-63.2a3.5,3.5,0,0,1,0-7h63.2a3.5,3.5,0,0,1,0,7Z" fill="#093f68"/><path d="M202,227.24a3.49,3.49,0,0,1-2.47-1l-16.66-16.66a3.49,3.49,0,0,1,0-4.95L199.49,188a3.5,3.5,0,0,1,4.95,5l-14.19,14.18,14.19,14.19a3.5,3.5,0,0,1-2.48,6Z" fill="#093f68"/><path d="M88,151.49a3.5,3.5,0,0,1-3.5-3.5V98a3.5,3.5,0,0,1,3.5-3.5h31.6a3.5,3.5,0,0,1,0,7H91.53V148A3.5,3.5,0,0,1,88,151.49Z" fill="#093f68"/><path d="M105.09,117.7a3.51,3.51,0,0,1-2.48-6L116.8,97.53,102.61,83.35a3.5,3.5,0,0,1,5-4.95l16.66,16.66a3.49,3.49,0,0,1,0,5l-16.66,16.66A3.5,3.5,0,0,1,105.09,117.7Z" fill="#093f68"/><path d="M307.39,156.06a3.5,3.5,0,0,1-3.5-3.5v-51H291.23a3.5,3.5,0,0,1,0-7h16.16a3.5,3.5,0,0,1,3.5,3.5v54.52A3.5,3.5,0,0,1,307.39,156.06Z" fill="#093f68"/><path d="M307.89,158.18a3.49,3.49,0,0,1-2.47-1L288.76,140.5a3.5,3.5,0,0,1,4.95-4.95l14.18,14.18,14.19-14.18A3.5,3.5,0,0,1,327,140.5l-16.66,16.66A3.51,3.51,0,0,1,307.89,158.18Z" fill="#093f68"/><path d="M91.89,171.46a1,1,0,0,1-1-.76,6.25,6.25,0,0,1,7.27-7.27l.64.19a2.44,2.44,0,0,0,1.33.2c.39-.15.67-.77.93-1.4a16.45,16.45,0,0,1,3.36-5.62,7,7,0,0,1,6.6-2.05,11,11,0,0,1,3,1.48c1.3.81,2.42,1.51,3.49,1.15s1.58-1.66,2.14-3c.2-.48.39-1,.61-1.42a9.7,9.7,0,0,1,12.3-4.43c.33.15.65.32,1,.48a3.71,3.71,0,0,0,4.58,0c.27-.14.53-.26.8-.38,5.58-2.5,11.8-.47,17.69,1.83a1,1,0,1,1-.72,1.86c-5.5-2.14-11.27-4.05-16.15-1.87l-.74.35a7.3,7.3,0,0,1-3.37,1,7.21,7.21,0,0,1-3-1c-.28-.16-.57-.31-.86-.44a7.73,7.73,0,0,0-9.68,3.49c-.2.41-.38.85-.56,1.29-.67,1.65-1.42,3.52-3.35,4.18s-3.68-.4-5.19-1.35a9.7,9.7,0,0,0-2.44-1.24,5,5,0,0,0-4.66,1.55,14.42,14.42,0,0,0-2.92,4.94,4.06,4.06,0,0,1-2.08,2.52,4,4,0,0,1-2.63-.16l-.53-.16a4.26,4.26,0,0,0-4.84,4.84,1,1,0,0,1-.72,1.22A1.07,1.07,0,0,1,91.89,171.46Z" fill="#dfeaef"/><path d="M122.09,178.2a9.39,9.39,0,0,1-4-.88,18.43,18.43,0,0,1-4.32-3.2,23,23,0,0,0-2.84-2.31,6.42,6.42,0,0,0-4.7-.94,2.69,2.69,0,0,0-1.8,1.29,1,1,0,0,1-1.36.39,1,1,0,0,1-.38-1.36,4.7,4.7,0,0,1,3.06-2.27,8.43,8.43,0,0,1,6.27,1.21,25.42,25.42,0,0,1,3.09,2.51,16.58,16.58,0,0,0,3.84,2.87A8.13,8.13,0,0,0,129,172.39a18,18,0,0,0,.93-2,9.53,9.53,0,0,1,2.67-4.12c2.38-1.86,5.89-1.59,10.16.79l.11.06c2.61,1.46,5.58,3.11,8.12,2.13,1.55-.59,2.69-2.06,3.9-3.62,1.58-2,3.22-4.15,6-4.37a12.5,12.5,0,0,1,1.5,0c1.3,0,2.16,0,2.36-.49a1,1,0,0,1,1.86.72c-.72,1.87-2.78,1.81-4.28,1.76-.46,0-.9,0-1.28,0-1.87.15-3.11,1.75-4.55,3.61-1.33,1.7-2.7,3.46-4.77,4.26-3.41,1.31-6.95-.66-9.81-2.25l-.1-.06c-2.45-1.36-5.82-2.64-8-1a8,8,0,0,0-2.06,3.33,19.83,19.83,0,0,1-1,2.19A10.1,10.1,0,0,1,122.09,178.2Z" fill="#dfeaef"/></g></svg>